<?xml version="1.0" encoding="UTF-8"?>
<svg width="24px" height="24px" viewBox="0 0 24 24" version="1.1" xmlns="http://www.w3.org/2000/svg" xmlns:xlink="http://www.w3.org/1999/xlink">
    <title>Combined Shape Copy 3</title>
    <g id="Page-1" stroke="none" stroke-width="1" fill="none" fill-rule="evenodd">
        <path d="M20,0 C22.209139,-4.05812251e-16 24,1.790861 24,4 L24,20 C24,22.209139 22.209139,24 20,24 L4,24 C1.790861,24 2.705415e-16,22.209139 0,20 L0,4 C-2.705415e-16,1.790861 1.790861,4.05812251e-16 4,0 L20,0 Z M12.573,6.765 C11.593,6.765 10.6445,6.856 9.7275,7.038 C8.8105,7.22 8.037,7.451 7.407,7.731 L7.407,7.731 L8.184,9.957 C8.674,9.719 9.2375,9.5195 9.8745,9.3585 C10.5115,9.1975 11.166,9.117 11.838,9.117 C12.566,9.117 13.063,9.243 13.329,9.495 C13.595,9.747 13.728,10.139 13.728,10.671 C13.728,10.881 13.707,11.133 13.665,11.427 C13.511,11.399 13.238,11.3535 12.846,11.2905 C12.454,11.2275 12.062,11.196 11.67,11.196 C9.976,11.196 8.7125,11.5145 7.8795,12.1515 C7.0465,12.7885 6.63,13.73 6.63,14.976 C6.63,15.438 6.7175,15.865 6.8925,16.257 C7.0675,16.649 7.3125,16.9885 7.6275,17.2755 C7.9425,17.5625 8.3205,17.783 8.7615,17.937 C9.2025,18.091 9.689,18.168 10.221,18.168 C11.103,18.168 11.824,17.993 12.384,17.643 C12.944,17.293 13.406,16.873 13.77,16.383 L13.77,16.383 L14.022,16.383 L14.505,18.021 L16.899,18.021 C16.745,17.559 16.633,17.076 16.563,16.572 C16.493,16.068 16.458,15.55 16.458,15.018 C16.458,14.234 16.486,13.492 16.542,12.792 C16.598,12.092 16.626,11.385 16.626,10.671 C16.626,10.083 16.5595,9.5475 16.4265,9.0645 C16.2935,8.5815 16.073,8.1685 15.765,7.8255 C15.457,7.4825 15.0405,7.22 14.5155,7.038 C13.9905,6.856 13.343,6.765 12.573,6.765 Z M11.88,12.876 C12.02,12.876 12.1775,12.883 12.3525,12.897 C12.5275,12.911 12.7025,12.932 12.8775,12.96 C13.0525,12.988 13.2135,13.016 13.3605,13.044 C13.5075,13.072 13.616,13.1 13.686,13.128 L13.686,13.128 L13.686,14.388 C13.504,14.724 13.217,15.046 12.825,15.354 C12.433,15.662 11.908,15.816 11.25,15.816 C10.76,15.816 10.3715,15.69 10.0845,15.438 C9.7975,15.186 9.654,14.808 9.654,14.304 C9.654,13.898 9.836,13.5585 10.2,13.2855 C10.564,13.0125 11.124,12.876 11.88,12.876 Z" id="Combined-Shape-Copy-3" fill="#008080"></path>
    </g>
</svg>