<?xml version="1.0" encoding="UTF-8"?>
<svg width="192px" height="192px" viewBox="0 0 192 192" version="1.1" xmlns="http://www.w3.org/2000/svg" xmlns:xlink="http://www.w3.org/1999/xlink">
    <title>Combined Shape Copy 4</title>
    <g id="Page-1" stroke="none" stroke-width="1" fill="none" fill-rule="evenodd">
        <path d="M159,0 C177.225397,-3.34795107e-15 192,14.7746033 192,33 L192,159 C192,177.225397 177.225397,192 159,192 L33,192 C14.7746033,192 2.23196738e-15,177.225397 0,159 L0,33 C-2.23196738e-15,14.7746033 14.7746033,3.34795107e-15 33,0 L159,0 Z M100.584,54.12 C92.744,54.12 85.156,54.848 77.82,56.304 C70.484,57.76 64.296,59.608 59.256,61.848 L59.256,61.848 L65.472,79.656 C69.392,77.752 73.9,76.156 78.996,74.868 C84.092,73.58 89.328,72.936 94.704,72.936 C100.528,72.936 104.504,73.944 106.632,75.96 C108.76,77.976 109.824,81.112 109.824,85.368 C109.824,87.048 109.656,89.064 109.32,91.416 C108.088,91.192 105.904,90.828 102.768,90.324 C99.632,89.82 96.496,89.568 93.36,89.568 C79.808,89.568 69.7,92.116 63.036,97.212 C56.372,102.308 53.04,109.84 53.04,119.808 C53.04,123.504 53.74,126.92 55.14,130.056 C56.54,133.192 58.5,135.908 61.02,138.204 C63.54,140.5 66.564,142.264 70.092,143.496 C73.62,144.728 77.512,145.344 81.768,145.344 C88.824,145.344 94.592,143.944 99.072,141.144 C103.552,138.344 107.248,134.984 110.16,131.064 L110.16,131.064 L112.176,131.064 L116.04,144.168 L135.192,144.168 C133.96,140.472 133.064,136.608 132.504,132.576 C131.944,128.544 131.664,124.4 131.664,120.144 C131.664,113.872 131.888,107.936 132.336,102.336 C132.784,96.736 133.008,91.08 133.008,85.368 C133.008,80.664 132.476,76.38 131.412,72.516 C130.348,68.652 128.584,65.348 126.12,62.604 C123.656,59.86 120.324,57.76 116.124,56.304 C111.924,54.848 106.744,54.12 100.584,54.12 Z M95.04,103.008 C96.16,103.008 97.42,103.064 98.82,103.176 C100.22,103.288 101.62,103.456 103.02,103.68 C104.42,103.904 105.708,104.128 106.884,104.352 C108.06,104.576 108.928,104.8 109.488,105.024 L109.488,105.024 L109.488,115.104 C108.032,117.792 105.736,120.368 102.6,122.832 C99.464,125.296 95.264,126.528 90,126.528 C86.08,126.528 82.972,125.52 80.676,123.504 C78.38,121.488 77.232,118.464 77.232,114.432 C77.232,111.184 78.688,108.468 81.6,106.284 C84.512,104.1 88.992,103.008 95.04,103.008 Z" id="Combined-Shape-Copy-4" fill="#008080"></path>
    </g>
</svg>