<?xml version="1.0" encoding="UTF-8"?>
<svg width="134px" height="21px" viewBox="0 0 134 21" version="1.1" xmlns="http://www.w3.org/2000/svg" xmlns:xlink="http://www.w3.org/1999/xlink">
    <title>ArkApp/crm</title>
    <g id="Page-1" stroke="none" stroke-width="1" fill="none" fill-rule="evenodd">
        <g id="Apple-TV" transform="translate(-89.000000, -307.000000)" fill-rule="nonzero">
            <g id="/ArkApp/crm" transform="translate(89.472000, 307.336000)">
                <polygon id="Path" fill="#000000" points="8.492 0 10.824 1.1 2.288 18.744 0 17.556"></polygon>
                <path d="M11.748,4.906 C12.408,4.61266667 13.2183333,4.37066667 14.179,4.18 C15.1396667,3.98933333 16.1333333,3.894 17.16,3.894 C17.9666667,3.894 18.645,3.98933333 19.195,4.18 C19.745,4.37066667 20.1813333,4.64566667 20.504,5.005 C20.8266667,5.36433333 21.0576667,5.797 21.197,6.303 C21.3363333,6.809 21.406,7.37 21.406,7.986 C21.406,8.734 21.3766667,9.47466667 21.318,10.208 C21.2593333,10.9413333 21.23,11.7186667 21.23,12.54 C21.23,13.0973333 21.2666667,13.64 21.34,14.168 C21.4133333,14.696 21.5306667,15.202 21.692,15.686 L19.184,15.686 L18.678,13.97 L18.414,13.97 C18.0326667,14.4833333 17.5486667,14.9233333 16.962,15.29 C16.3753333,15.6566667 15.62,15.84 14.696,15.84 C14.1386667,15.84 13.629,15.7593333 13.167,15.598 C12.705,15.4366667 12.309,15.2056667 11.979,14.905 C11.649,14.6043333 11.3923333,14.2486667 11.209,13.838 C11.0256667,13.4273333 10.934,12.98 10.934,12.496 C10.934,11.1906667 11.3703333,10.2043333 12.243,9.537 C13.1156667,8.86966667 14.4393333,8.536 16.214,8.536 C16.6246667,8.536 17.0353333,8.569 17.446,8.635 C17.8566667,8.701 18.1426667,8.74866667 18.304,8.778 C18.348,8.47 18.37,8.206 18.37,7.986 C18.37,7.42866667 18.2306667,7.018 17.952,6.754 C17.6733333,6.49 17.1526667,6.358 16.39,6.358 C15.686,6.358 15.0003333,6.44233333 14.333,6.611 C13.6656667,6.77966667 13.0753333,6.98866667 12.562,7.238 L11.748,4.906 Z M15.774,13.376 C16.4633333,13.376 17.0133333,13.2146667 17.424,12.892 C17.8346667,12.5693333 18.1353333,12.232 18.326,11.88 L18.326,10.56 C18.2526667,10.5306667 18.139,10.5013333 17.985,10.472 C17.831,10.4426667 17.6623333,10.4133333 17.479,10.384 C17.2956667,10.3546667 17.1123333,10.3326667 16.929,10.318 C16.7456667,10.3033333 16.5806667,10.296 16.434,10.296 C15.642,10.296 15.0553333,10.439 14.674,10.725 C14.2926667,11.011 14.102,11.3666667 14.102,11.792 C14.102,12.32 14.2523333,12.716 14.553,12.98 C14.8536667,13.244 15.2606667,13.376 15.774,13.376 Z" id="Shape" fill="#FA6400"></path>
                <path d="M31.416,6.93 C30.976,6.78333333 30.536,6.71 30.096,6.71 C29.4506667,6.71 28.919,6.864 28.501,7.172 C28.083,7.48 27.808,7.86866667 27.676,8.338 L27.676,15.664 L24.596,15.664 L24.596,4.114 L27.016,4.114 L27.346,5.72 L27.632,5.72 C27.9253333,5.11866667 28.3176667,4.65666667 28.809,4.334 C29.3003333,4.01133333 29.8613333,3.85 30.492,3.85 C30.888,3.85 31.3426667,3.93066667 31.856,4.092 L31.416,6.93 Z" id="Path" fill="#FA6400"></path>
                <polygon id="Path" fill="#FA6400" points="37.664 10.868 36.608 10.868 36.608 15.664 33.528 15.664 33.528 0.264 36.608 0.264 36.608 9.108 37.576 8.69 40.458 4.114 43.846 4.114 40.898 8.316 40.92 8.316 39.512 9.328 40.986 10.296 40.964 10.296 44.352 15.664 40.788 15.664"></polygon>
                <path d="M45.826,4.906 C46.486,4.61266667 47.2963333,4.37066667 48.257,4.18 C49.2176667,3.98933333 50.2113333,3.894 51.238,3.894 C52.0446667,3.894 52.723,3.98933333 53.273,4.18 C53.823,4.37066667 54.2593333,4.64566667 54.582,5.005 C54.9046667,5.36433333 55.1356667,5.797 55.275,6.303 C55.4143333,6.809 55.484,7.37 55.484,7.986 C55.484,8.734 55.4546667,9.47466667 55.396,10.208 C55.3373333,10.9413333 55.308,11.7186667 55.308,12.54 C55.308,13.0973333 55.3446667,13.64 55.418,14.168 C55.4913333,14.696 55.6086667,15.202 55.77,15.686 L53.262,15.686 L52.756,13.97 L52.492,13.97 C52.1106667,14.4833333 51.6266667,14.9233333 51.04,15.29 C50.4533333,15.6566667 49.698,15.84 48.774,15.84 C48.2166667,15.84 47.707,15.7593333 47.245,15.598 C46.783,15.4366667 46.387,15.2056667 46.057,14.905 C45.727,14.6043333 45.4703333,14.2486667 45.287,13.838 C45.1036667,13.4273333 45.012,12.98 45.012,12.496 C45.012,11.1906667 45.4483333,10.2043333 46.321,9.537 C47.1936667,8.86966667 48.5173333,8.536 50.292,8.536 C50.7026667,8.536 51.1133333,8.569 51.524,8.635 C51.9346667,8.701 52.2206667,8.74866667 52.382,8.778 C52.426,8.47 52.448,8.206 52.448,7.986 C52.448,7.42866667 52.3086667,7.018 52.03,6.754 C51.7513333,6.49 51.2306667,6.358 50.468,6.358 C49.764,6.358 49.0783333,6.44233333 48.411,6.611 C47.7436667,6.77966667 47.1533333,6.98866667 46.64,7.238 L45.826,4.906 Z M49.852,13.376 C50.5413333,13.376 51.0913333,13.2146667 51.502,12.892 C51.9126667,12.5693333 52.2133333,12.232 52.404,11.88 L52.404,10.56 C52.3306667,10.5306667 52.217,10.5013333 52.063,10.472 C51.909,10.4426667 51.7403333,10.4133333 51.557,10.384 C51.3736667,10.3546667 51.1903333,10.3326667 51.007,10.318 C50.8236667,10.3033333 50.6586667,10.296 50.512,10.296 C49.72,10.296 49.1333333,10.439 48.752,10.725 C48.3706667,11.011 48.18,11.3666667 48.18,11.792 C48.18,12.32 48.3303333,12.716 48.631,12.98 C48.9316667,13.244 49.3386667,13.376 49.852,13.376 Z" id="Shape" fill="#000000"></path>
                <path d="M58.674,4.114 L60.874,4.114 L61.248,5.544 L61.512,5.544 C61.9666667,4.95733333 62.4946667,4.51733333 63.096,4.224 C63.6973333,3.93066667 64.4013333,3.784 65.208,3.784 C66.7626667,3.784 67.9286667,4.24966667 68.706,5.181 C69.4833333,6.11233333 69.872,7.59 69.872,9.614 C69.872,10.582 69.7473333,11.4583333 69.498,12.243 C69.2486667,13.0276667 68.882,13.7023333 68.398,14.267 C67.914,14.8316667 67.3163333,15.2643333 66.605,15.565 C65.8936667,15.8656667 65.076,16.016 64.152,16.016 C63.6533333,16.016 63.2206667,15.9683333 62.854,15.873 C62.4873333,15.7776667 62.1206667,15.6493333 61.754,15.488 L61.754,20.042 L58.674,20.042 L58.674,4.114 Z M64.262,6.358 C63.558,6.358 63.0153333,6.51566667 62.634,6.831 C62.2526667,7.14633333 61.9593333,7.634 61.754,8.294 L61.754,12.782 C62.0033333,12.9873333 62.282,13.1486667 62.59,13.266 C62.898,13.3833333 63.2866667,13.442 63.756,13.442 C64.7533333,13.442 65.494,13.1303333 65.978,12.507 C66.462,11.8836667 66.704,10.89 66.704,9.526 C66.704,8.54333333 66.517,7.76966667 66.143,7.205 C65.769,6.64033333 65.142,6.358 64.262,6.358 Z" id="Shape" fill="#000000"></path>
                <path d="M72.38,4.114 L74.58,4.114 L74.954,5.544 L75.218,5.544 C75.6726667,4.95733333 76.2006667,4.51733333 76.802,4.224 C77.4033333,3.93066667 78.1073333,3.784 78.914,3.784 C80.4686667,3.784 81.6346667,4.24966667 82.412,5.181 C83.1893333,6.11233333 83.578,7.59 83.578,9.614 C83.578,10.582 83.4533333,11.4583333 83.204,12.243 C82.9546667,13.0276667 82.588,13.7023333 82.104,14.267 C81.62,14.8316667 81.0223333,15.2643333 80.311,15.565 C79.5996667,15.8656667 78.782,16.016 77.858,16.016 C77.3593333,16.016 76.9266667,15.9683333 76.56,15.873 C76.1933333,15.7776667 75.8266667,15.6493333 75.46,15.488 L75.46,20.042 L72.38,20.042 L72.38,4.114 Z M77.968,6.358 C77.264,6.358 76.7213333,6.51566667 76.34,6.831 C75.9586667,7.14633333 75.6653333,7.634 75.46,8.294 L75.46,12.782 C75.7093333,12.9873333 75.988,13.1486667 76.296,13.266 C76.604,13.3833333 76.9926667,13.442 77.462,13.442 C78.4593333,13.442 79.2,13.1303333 79.684,12.507 C80.168,11.8836667 80.41,10.89 80.41,9.526 C80.41,8.54333333 80.223,7.76966667 79.849,7.205 C79.475,6.64033333 78.848,6.358 77.968,6.358 Z" id="Shape" fill="#000000"></path>
                <polygon id="Path" fill="#000000" points="92.466 0 94.798 1.1 86.262 18.744 83.974 17.556"></polygon>
                <path d="M104.544,14.96 C104.045333,15.2973333 103.447667,15.554 102.751,15.73 C102.054333,15.906 101.332,15.994 100.584,15.994 C99.5866667,15.994 98.747,15.8473333 98.065,15.554 C97.383,15.2606667 96.8256667,14.8426667 96.393,14.3 C95.9603333,13.7573333 95.6486667,13.1156667 95.458,12.375 C95.2673333,11.6343333 95.172,10.8093333 95.172,9.9 C95.172,7.97866667 95.645,6.479 96.591,5.401 C97.537,4.323 98.912,3.784 100.716,3.784 C101.596,3.784 102.318333,3.85366667 102.883,3.993 C103.447667,4.13233333 103.95,4.312 104.39,4.532 L103.642,6.996 C103.260667,6.83466667 102.883,6.71366667 102.509,6.633 C102.135,6.55233333 101.698667,6.512 101.2,6.512 C100.276,6.512 99.5683333,6.77966667 99.077,7.315 C98.5856667,7.85033333 98.34,8.712 98.34,9.9 C98.34,10.3693333 98.3986667,10.8056667 98.516,11.209 C98.6333333,11.6123333 98.8166667,11.968 99.066,12.276 C99.3153333,12.584 99.6306667,12.826 100.012,13.002 C100.393333,13.178 100.840667,13.266 101.354,13.266 C101.97,13.266 102.457667,13.211 102.817,13.101 C103.176333,12.991 103.517333,12.8406667 103.84,12.65 L104.544,14.96 Z" id="Path" fill="#008080"></path>
                <path d="M113.652,6.93 C113.212,6.78333333 112.772,6.71 112.332,6.71 C111.686667,6.71 111.155,6.864 110.737,7.172 C110.319,7.48 110.044,7.86866667 109.912,8.338 L109.912,15.664 L106.832,15.664 L106.832,4.114 L109.252,4.114 L109.582,5.72 L109.868,5.72 C110.161333,5.11866667 110.553667,4.65666667 111.045,4.334 C111.536333,4.01133333 112.097333,3.85 112.728,3.85 C113.124,3.85 113.578667,3.93066667 114.092,4.092 L113.652,6.93 Z" id="Path" fill="#008080"></path>
                <path d="M122.98,15.664 L122.98,9.636 C122.98,8.52133333 122.862667,7.722 122.628,7.238 C122.393333,6.754 121.909333,6.512 121.176,6.512 C120.56,6.512 120.068667,6.66233333 119.702,6.963 C119.335333,7.26366667 119.049333,7.656 118.844,8.14 L118.844,15.664 L115.764,15.664 L115.764,4.114 L118.14,4.114 L118.492,5.72 L118.778,5.72 C118.968667,5.47066667 119.188667,5.22866667 119.438,4.994 C119.687333,4.75933333 119.962333,4.554 120.263,4.378 C120.563667,4.202 120.901,4.059 121.275,3.949 C121.649,3.839 122.070667,3.784 122.54,3.784 C123.317333,3.784 123.966333,3.95633333 124.487,4.301 C125.007667,4.64566667 125.422,5.22133333 125.73,6.028 C126.155333,5.324 126.672333,4.774 127.281,4.378 C127.889667,3.982 128.597333,3.784 129.404,3.784 C130.108,3.784 130.705667,3.86466667 131.197,4.026 C131.688333,4.18733333 132.088,4.466 132.396,4.862 C132.704,5.258 132.927667,5.79333333 133.067,6.468 C133.206333,7.14266667 133.276,7.986 133.276,8.998 L133.276,15.664 L130.196,15.664 L130.196,9.482 C130.196,8.998 130.174,8.57266667 130.13,8.206 C130.086,7.83933333 129.998,7.52766667 129.866,7.271 C129.734,7.01433333 129.547,6.82366667 129.305,6.699 C129.063,6.57433333 128.744,6.512 128.348,6.512 C127.732,6.512 127.237,6.66966667 126.863,6.985 C126.489,7.30033333 126.221333,7.73666667 126.06,8.294 L126.06,15.664 L122.98,15.664 Z" id="Path" fill="#008080"></path>
            </g>
        </g>
    </g>
</svg>